# xmcd
#
# Track frame offsets:
#  150
#  57307
#  79690
#  115135
#  140620
#  248635
#
# Disc length: 3629 seconds
#
# Revision: 0
# Processed by: cddbd v1.4PL0 Copyright (c) Steve Scherf et al.
# Submitted via: AltoMP3_Maker 3.0
#
DISCID=4a0e2b06
DTITLE=Padmashree K.J. Yesudas - Thyagaraja Krithis  - Volume 2
DYEAR=1900
DGENRE=
TTITLE0=Pariaachakama
TTITLE1=Paramathmudu
TTITLE2=Thulasi Dala
TTITLE3=Sarasa Saamadhana
TTITLE4=Neesari Saati
TTITLE5=Thelialethu
EXTD=
EXTT0=
EXTT1=
EXTT2=
EXTT3=
EXTT4=
EXTT5=
PLAYORDER=
